<?xml version="1.0" encoding="UTF-8" standalone="no"?>
<!-- Created with Inkscape (http://www.inkscape.org/) -->

<svg
   xmlns:dc="http://purl.org/dc/elements/1.1/"
   xmlns:cc="http://creativecommons.org/ns#"
   xmlns:rdf="http://www.w3.org/1999/02/22-rdf-syntax-ns#"
   xmlns:svg="http://www.w3.org/2000/svg"
   xmlns="http://www.w3.org/2000/svg"
   xmlns:sodipodi="http://sodipodi.sourceforge.net/DTD/sodipodi-0.dtd"
   xmlns:inkscape="http://www.inkscape.org/namespaces/inkscape"
   width="5717.8535"
   height="882.54932"
   viewBox="0 0 1512.8487 233.50785"
   version="1.1"
   id="svg8"
   inkscape:version="0.92.0 r15299"
   sodipodi:docname="hackerfund-logo-r.svg">
  <defs
     id="defs2">
    <clipPath
       id="clipPath4509"
       clipPathUnits="userSpaceOnUse">
      <path
         inkscape:connector-curvature="0"
         id="path4507"
         d="M 0,2160 H 5184 V 0 H 0 Z" />
    </clipPath>
  </defs>
  <sodipodi:namedview
     id="base"
     pagecolor="#ffffff"
     bordercolor="#666666"
     borderopacity="1.0"
     inkscape:pageopacity="0.0"
     inkscape:pageshadow="2"
     inkscape:zoom="0.35"
     inkscape:cx="1293.4025"
     inkscape:cy="441.27467"
     inkscape:document-units="mm"
     inkscape:current-layer="layer1"
     showgrid="false"
     units="px"
     fit-margin-top="0"
     fit-margin-left="0"
     fit-margin-right="0"
     fit-margin-bottom="0"
     inkscape:window-width="1920"
     inkscape:window-height="1017"
     inkscape:window-x="1072"
     inkscape:window-y="468"
     inkscape:window-maximized="1" />
  <metadata
     id="metadata5">
    <rdf:RDF>
      <cc:Work
         rdf:about="">
        <dc:format>image/svg+xml</dc:format>
        <dc:type
           rdf:resource="http://purl.org/dc/dcmitype/StillImage" />
        <dc:title></dc:title>
      </cc:Work>
    </rdf:RDF>
  </metadata>
  <g
     inkscape:label="Layer 1"
     inkscape:groupmode="layer"
     id="layer1"
     transform="translate(785.9065,-32.079409)">
    <g
       transform="matrix(0.35277777,0,0,-0.35277777,-943.84648,529.83332)"
       inkscape:label="hackerfund-logo-r"
       id="g4493">
      <g
         transform="translate(447.7039,757.9792)"
         id="g4495">
        <path
           inkscape:connector-curvature="0"
           id="path4497"
           style="fill:#2f2e2e;fill-opacity:1;fill-rule:nonzero;stroke:none"
           d="M 0,0 V 644.042 H 142.561 V 383.784 h 99.054 V 644.042 H 384.173 V 0 H 241.615 V 282.012 H 142.561 V 0 Z" />
      </g>
      <g
         transform="translate(1067.6621,979.7795)"
         id="g4499">
        <path
           inkscape:connector-curvature="0"
           id="path4501"
           style="fill:#2f2e2e;fill-opacity:1;fill-rule:nonzero;stroke:none"
           d="M 0,0 H 68.755 L 34.184,249.384 Z M -168.973,-221.8 -47.001,422.241 H 113.815 L 235.01,-221.8 H 103.716 L 81.575,-85.067 H -12.43 L -34.182,-221.8 Z" />
      </g>
      <g
         id="g4503">
        <g
           clip-path="url(#clipPath4509)"
           id="g4505">
          <g
             transform="translate(1551.6656,749.044)"
             id="g4511">
            <path
               inkscape:connector-curvature="0"
               id="path4513"
               style="fill:#2f2e2e;fill-opacity:1;fill-rule:nonzero;stroke:none"
               d="m 0,0 c -35.998,0 -66.685,4.991 -92.061,14.954 -25.383,9.966 -45.388,24.671 -60.015,44.09 -14.632,19.423 -25.188,41.82 -31.658,67.201 -6.476,25.377 -9.712,55.16 -9.712,89.34 v 229.574 c 0,34.961 3.236,65.32 9.712,91.09 6.47,25.765 17.026,48.295 31.658,67.59 14.627,19.289 34.572,33.795 59.821,43.507 25.249,9.709 55.997,14.566 92.255,14.566 34.7,0 64.288,-4.407 88.76,-13.208 24.473,-8.807 43.634,-21.753 57.49,-38.845 13.85,-17.09 23.823,-36.513 29.911,-58.265 6.081,-21.755 9.128,-47.002 9.128,-75.747 V 419.134 H 46.225 v 64.87 c 0,10.098 -0.132,17.734 -0.387,22.917 -0.261,5.178 -1.166,11.849 -2.721,20.005 -1.552,8.159 -3.823,14.306 -6.796,18.453 -2.981,4.139 -7.575,7.828 -13.79,11.069 -6.215,3.236 -13.73,4.857 -22.531,4.857 -8.807,0 -16.314,-1.621 -22.529,-4.857 -6.215,-3.241 -10.943,-7.125 -14.179,-11.653 -3.24,-4.534 -5.826,-10.749 -7.768,-18.645 -1.942,-7.902 -3.107,-15.088 -3.496,-21.558 -0.389,-6.477 -0.582,-14.506 -0.582,-24.085 V 180.238 c 0,-25.895 3.362,-45.64 10.099,-59.237 6.73,-13.597 19.549,-20.39 38.455,-20.39 8.546,0 15.86,1.609 21.949,4.851 6.081,3.237 10.68,7.057 13.788,11.462 3.107,4.398 5.499,10.617 7.188,18.645 1.681,8.021 2.652,15.014 2.913,20.976 0.255,5.954 0.387,13.851 0.387,23.693 v 67.59 h 139.064 v -55.546 c 0,-23.054 -1.815,-43.894 -5.439,-62.542 C 176.221,111.099 170.073,93.549 161.4,77.107 152.72,60.661 141.455,46.871 127.605,35.741 113.749,24.603 96.075,15.86 74.581,9.517 53.084,3.174 28.224,0 0,0" />
          </g>
          <g
             transform="translate(1814.2542,757.9792)"
             id="g4515">
            <path
               inkscape:connector-curvature="0"
               id="path4517"
               style="fill:#2f2e2e;fill-opacity:1;fill-rule:nonzero;stroke:none"
               d="M 0,0 V 644.042 H 142.172 V 382.229 L 250.935,644.042 H 389.61 L 270.358,353.096 395.438,0 H 250.159 L 156.154,287.838 142.172,265.694 V 0 Z" />
          </g>
          <g
             transform="translate(2264.8518,757.9792)"
             id="g4519">
            <path
               inkscape:connector-curvature="0"
               id="path4521"
               style="fill:#2f2e2e;fill-opacity:1;fill-rule:nonzero;stroke:none"
               d="M 0,0 V 644.042 H 289.392 V 546.931 H 142.171 V 387.668 H 254.43 V 288.612 H 142.171 V 96.334 H 290.945 V 0 Z" />
          </g>
          <g
             transform="translate(2762.4509,1128.1678)"
             id="g4523">
            <path
               inkscape:connector-curvature="0"
               id="path4525"
               style="fill:#2f2e2e;fill-opacity:1;fill-rule:nonzero;stroke:none"
               d="m 0,0 h 36.515 c 29.001,0 49.459,7.507 61.371,22.529 11.909,15.016 17.871,37.68 17.871,67.979 0,29.777 -5.38,51.856 -16.121,66.23 -10.749,14.372 -29.33,21.558 -55.742,21.558 H 0 Z M -142.173,-370.189 V 273.853 H 33.406 c 27.191,0 51.272,-1.553 72.248,-4.66 20.976,-3.108 40.656,-8.546 59.044,-16.316 18.385,-7.768 33.535,-18.001 45.451,-30.686 11.908,-12.692 21.233,-29.006 27.965,-48.945 6.733,-19.944 10.103,-43.251 10.103,-69.919 0,-42.215 -5.698,-76.136 -17.092,-101.774 -11.399,-25.636 -31.986,-45.581 -61.765,-59.821 l 88.567,-311.921 H 110.706 L 40.01,-81.962 H 0 v -288.227 z" />
          </g>
          <g
             transform="translate(3104.2813,757.9792)"
             id="g4527">
            <path
               inkscape:connector-curvature="0"
               id="path4529"
               style="fill:#3bb63e;fill-opacity:1;fill-rule:nonzero;stroke:none"
               d="M 0,0 V 644.042 H 232.292 V 598.595 H 60.986 V 356.593 H 203.548 V 311.534 H 60.986 V 0 Z" />
          </g>
          <g
             transform="translate(3569.2507,749.8223)"
             id="g4531">
            <path
               inkscape:connector-curvature="0"
               id="path4533"
               style="fill:#3bb63e;fill-opacity:1;fill-rule:nonzero;stroke:none"
               d="m 0,0 c -25.638,0 -48.167,2.977 -67.59,8.931 -19.42,5.955 -35.219,14.183 -47.389,24.671 -12.177,10.488 -22.015,23.629 -29.522,39.425 -7.514,15.792 -12.758,32.563 -15.732,50.305 -2.981,17.734 -4.469,38 -4.469,60.789 v 468.077 h 58.659 V 182.18 c 0,-16.057 0.902,-30.429 2.72,-43.116 1.806,-12.694 5.047,-24.799 9.709,-36.323 4.663,-11.523 10.874,-21.108 18.645,-28.743 7.768,-7.64 17.995,-13.73 30.69,-18.256 12.683,-4.534 27.444,-6.801 44.279,-6.801 20.198,0 37.35,3.302 51.469,9.907 14.111,6.604 24.988,16.185 32.631,28.743 7.632,12.559 13.14,26.477 16.511,41.763 3.362,15.275 5.047,32.885 5.047,52.826 v 470.018 h 58.266 V 184.121 c 0,-22.528 -1.553,-42.73 -4.663,-60.596 C 156.156,105.658 150.716,88.819 142.948,73.027 135.18,57.231 125.142,44.09 112.844,33.602 100.542,23.114 84.878,14.886 65.844,8.931 46.811,2.977 24.86,0 0,0" />
          </g>
          <g
             transform="translate(3838.4434,757.9792)"
             id="g4535">
            <path
               inkscape:connector-curvature="0"
               id="path4537"
               style="fill:#3bb63e;fill-opacity:1;fill-rule:nonzero;stroke:none"
               d="M 0,0 V 644.042 H 44.668 L 249.77,144.115 v 499.927 h 52.05 V 0 H 259.09 L 52.44,505.756 V 0 Z" />
          </g>
          <g
             transform="translate(4313.1265,803.4258)"
             id="g4539">
            <path
               inkscape:connector-curvature="0"
               id="path4541"
               style="fill:#3bb63e;fill-opacity:1;fill-rule:nonzero;stroke:none"
               d="m 0,0 h 81.184 c 19.937,0 36.836,2.781 50.69,8.353 13.851,5.566 24.728,12.683 32.631,21.366 7.897,8.674 14.044,20.522 18.449,35.544 4.401,15.014 7.186,29.711 8.353,44.086 1.164,14.372 1.75,32.174 1.75,53.411 v 240.447 c 0,20.716 -0.847,38.323 -2.528,52.829 -1.685,14.501 -4.923,28.162 -9.71,40.981 -4.794,12.819 -11.398,23.047 -19.812,30.688 -8.418,7.635 -19.42,13.595 -33.017,17.868 -13.597,4.273 -29.85,6.41 -48.748,6.41 L 0,551.983 Z M -60.986,-45.447 V 598.595 H 80.016 c 26.156,0 49.266,-2.979 69.339,-8.933 20.066,-5.96 36.708,-14.246 49.916,-24.86 13.205,-10.622 23.95,-23.957 32.239,-40.01 8.285,-16.061 14.179,-33.408 17.674,-52.053 3.498,-18.645 5.244,-39.755 5.244,-63.317 V 153.436 c 0,-31.336 -2.853,-58.787 -8.546,-82.347 C 240.185,47.521 230.86,26.802 217.917,8.935 204.961,-8.931 187.423,-22.468 165.28,-31.657 c -22.139,-9.195 -49.009,-13.79 -80.602,-13.79 z" />
          </g>
          <g
             transform="translate(4673.895,1290.2412)"
             id="g4543">
            <path
               inkscape:connector-curvature="0"
               id="path4545"
               style="fill:#2f2e2e;fill-opacity:1;fill-rule:nonzero;stroke:none"
               d="M 0,0 C 27.343,-0.005 49.552,22.178 49.575,49.519 49.597,76.823 27.394,99.059 0.096,99.071 -27.301,99.083 -49.522,76.886 -49.508,49.522 -49.493,22.211 -27.293,0.005 0,0 M -62.132,49.536 C -62.144,83.862 -34.326,111.69 0,111.692 34.383,111.694 62.186,83.912 62.199,49.54 62.212,15.153 34.355,-12.634 -0.12,-12.621 c -34.21,0.013 -62.001,27.869 -62.012,62.157" />
          </g>
          <g
             transform="translate(4663.4736,1344.859)"
             id="g4547">
            <path
               inkscape:connector-curvature="0"
               id="path4549"
               style="fill:#2f2e2e;fill-opacity:1;fill-rule:nonzero;stroke:none"
               d="m 0,0 c 2.794,0 5.522,-0.028 8.249,0.016 0.895,0.014 1.798,0.158 2.679,0.336 2.915,0.589 4.969,2.155 5.647,5.186 0.421,1.888 0.443,3.791 0.008,5.674 -0.535,2.318 -1.833,4.034 -4.187,4.716 -1.152,0.334 -2.357,0.61 -3.548,0.658 C 6.041,16.699 3.227,16.66 0.416,16.679 0.28,16.68 0.144,16.642 0,16.621 Z m -0.032,-11.535 v -24.64 h -16.734 v 65.033 c 0.197,0.014 0.357,0.036 0.517,0.036 8.77,-0.009 17.54,0.008 26.309,-0.041 4.342,-0.025 8.645,-0.452 12.781,-1.897 3.734,-1.305 6.873,-3.384 8.808,-6.969 1.315,-2.436 1.822,-5.084 1.95,-7.811 0.146,-3.145 -0.17,-6.233 -1.466,-9.15 -1.645,-3.702 -4.526,-6.12 -8.149,-7.74 -0.857,-0.384 -1.745,-0.697 -2.657,-1.057 0.553,-0.202 1.09,-0.374 1.609,-0.591 2.828,-1.183 4.884,-3.263 6.614,-5.719 1.769,-2.509 3.058,-5.283 4.418,-8.017 2.557,-5.139 5.106,-10.281 7.657,-15.423 0.096,-0.194 0.178,-0.396 0.293,-0.655 -0.272,-0.015 -0.47,-0.035 -0.668,-0.035 -5.505,-0.001 -11.009,0.007 -16.513,-0.015 -0.519,-0.002 -0.751,0.186 -0.966,0.625 -2.613,5.338 -5.216,10.681 -7.89,15.989 -0.725,1.439 -1.61,2.811 -2.543,4.129 -1.554,2.195 -3.761,3.45 -6.408,3.706 -2.278,0.221 -4.582,0.17 -6.962,0.242" />
          </g>
        </g>
      </g>
    </g>
  </g>
</svg>
