<?xml version="1.0" encoding="UTF-8" standalone="no"?>
<svg
   xmlns:dc="http://purl.org/dc/elements/1.1/"
   xmlns:cc="http://creativecommons.org/ns#"
   xmlns:rdf="http://www.w3.org/1999/02/22-rdf-syntax-ns#"
   xmlns:svg="http://www.w3.org/2000/svg"
   xmlns="http://www.w3.org/2000/svg"
   viewBox="0 0 896 896"
   height="896"
   width="896"
   xml:space="preserve"
   id="svg2"
   version="1.1"><metadata
     id="metadata8"><rdf:RDF><cc:Work
         rdf:about=""><dc:format>image/svg+xml</dc:format><dc:type
           rdf:resource="http://purl.org/dc/dcmitype/StillImage" /><dc:title></dc:title></cc:Work></rdf:RDF></metadata><defs
     id="defs6" /><g
     transform="matrix(1.3333333,0,0,-1.3333333,0,896)"
     id="g10"><g
       transform="scale(0.1)"
       id="g12"><path
         id="path14"
         style="fill:#151824;fill-opacity:1;fill-rule:nonzero;stroke:none"
         d="M 2245,3795 H 4915 V 5325 H 2245 Z" /><path
         id="path16"
         style="fill:#ed144e;fill-opacity:1;fill-rule:nonzero;stroke:none"
         d="m 3197.61,4325.59 h -80.89 c -19.85,0 -29.41,-8.83 -29.41,-29.42 v -185.32 c 0,-20.58 9.56,-29.41 29.41,-29.41 h 80.89 c 20.6,0 29.42,8.09 29.42,29.41 v 185.32 c 0,21.33 -8.82,29.42 -29.42,29.42 z m 1179.54,391.95 c -12.5,0 -26.47,5.15 -36.76,18.38 l -117.66,147.82 -44.86,-49.28 v -68.39 c 0,-31.62 -23.53,-47.79 -47.79,-47.79 -23.54,0 -47.81,16.17 -47.81,47.79 v 344.89 c 0,31.62 23.53,47.8 47.81,47.8 23.51,0 47.79,-16.18 47.79,-47.8 v -138.25 l 144.86,169.87 c 10.3,12.51 23.54,17.65 35.3,17.65 25.74,0 49.27,-22.79 49.27,-49.27 0,-10.29 -3.67,-20.58 -12.5,-30.88 l -108.1,-123.54 128.69,-160.31 c 8.09,-10.3 11.04,-20.6 11.04,-30.16 0,-26.47 -23.54,-48.53 -49.28,-48.53 z M 4330.88,1825.1 c -61.56,-8.67 -117.93,-13.73 -177.05,0.8 -59.12,14.53 -80.63,45.76 -92.44,129.76 -12.58,89.59 -21.94,196.76 -33.26,317.93 -174.79,-55.95 -371.55,-117.87 -508.77,-177.13 -45.43,-123.43 -86.06,-240.5 -120.26,-342.38 -22.52,-63.1 -44.12,-71.85 -100.83,-54.14 -57.1,20.53 -101.84,34.24 -147.32,73.52 -45.47,39.29 -50.97,78.49 -28.42,161.6 2.41,8.26 4.95,16.81 7.45,25.29 -146.29,-55.56 -306.51,-115.74 -441.66,-177.36 -110.02,-49.73 -141.94,-25.67 -180.64,6.01 -41.1,28.48 -76.22,54.96 -131.66,104.26 -39.48,37.29 -64.15,90.92 -57.59,166.08 32.38,358.55 153.91,1097.95 252.31,1494.36 18.53,71.11 53.73,84.63 115.25,73.29 64.33,-10.95 156.19,-35.15 215.67,-72.47 59.47,-37.33 68.61,-61.73 52.47,-129.67 -74.26,-324.48 -171.65,-809.24 -243.72,-1230.49 105.99,37.73 199.57,62.3 313.12,86.83 60.78,14.26 95.94,7.77 126.2,-45.08 15.84,-27.67 29.21,-54.9 40.35,-82.5 141.28,435.45 362.93,1016.1 515.47,1359.4 30.11,69.91 76.6,124.96 178.53,130.73 175.08,13.18 269.75,-10.63 366.43,-28.44 70.7,-15.76 85.39,-59.38 84.04,-130.94 -0.8,-359.85 29.67,-1043.62 66.08,-1566.68 6.25,-64.79 -8.19,-83.93 -69.75,-92.58 z M 2447.91,5110.96 c 0,33.1 23.53,50.01 47.79,50.01 23.53,0 47.8,-16.91 47.8,-50.01 v -109.57 h 142.67 v 109.57 c 0,33.1 23.53,50.01 47.79,50.01 23.54,0 47.8,-16.91 47.8,-50.01 v -344.89 c 0,-33.09 -23.52,-50 -47.8,-50 -23.53,0 -47.79,16.91 -47.79,50 V 4905.8 H 2543.5 v -139.73 c 0,-33.09 -23.52,-50 -47.8,-50 -23.53,0 -47.79,16.91 -47.79,50 z m 186.77,-856.71 c 31.62,0 47.82,-23.53 47.82,-47.79 0,-23.54 -16.2,-47.8 -47.82,-47.8 h -64.7 V 4030.7 c 0,-31.62 -23.54,-47.8 -47.8,-47.8 -23.53,0 -47.8,16.18 -47.8,47.8 v 343.42 c 0,25.74 22.06,47.8 47.8,47.8 h 213.99 c 31.62,0 47.8,-23.53 47.8,-47.8 0,-23.53 -16.18,-47.8 -47.8,-47.8 h -166.19 v -72.07 z m 687.95,41.92 v -185.32 c 0,-77.21 -54.41,-125.01 -125.02,-125.01 h -80.89 c -68.39,0 -125.01,47.07 -125.01,125.01 v 185.32 c 0,77.95 56.62,125.02 125.01,125.02 h 80.89 c 70.61,0 125.02,-47.81 125.02,-125.02 z m -330.92,480.2 73.54,316.21 c 10.29,45.59 46.33,67.65 94.13,67.65 65.44,0 88.24,-36.76 99.27,-90.45 l 60.31,-295.61 c 0.72,-3.68 1.46,-7.36 1.46,-11.04 0,-28.68 -25,-46.33 -49.27,-46.33 -20.59,0 -40.44,12.51 -45.59,38.98 l -13.24,64.71 h -113.24 c -5.15,-22.06 -9.56,-44.12 -14.71,-66.18 -5.88,-25.74 -25,-36.77 -44.86,-36.77 -24.26,0 -49.27,16.91 -49.27,45.59 0,3.68 0.73,8.83 1.47,13.24 z m 542.33,-402.99 c 0,25.74 22.07,47.81 47.82,47.81 h 158.1 c 70.59,0 125,-47.81 125,-125.02 v -19.12 c 0,-47.06 -20.58,-83.09 -52.95,-104.42 l 46.33,-126.49 c 2.21,-6.61 3.69,-11.76 3.69,-17.64 0,-27.95 -25,-46.33 -50.02,-46.33 -17.63,0 -35.29,9.56 -43.38,31.62 l -50.74,138.25 h -88.24 v -122.07 c 0,-31.63 -23.54,-47.8 -47.79,-47.8 -23.54,0 -47.82,16.17 -47.82,47.8 z m 8.11,658.16 c 0,77.95 56.62,125.02 125,125.02 h 80.9 c 58.83,0 110.29,-33.83 122.07,-97.07 0.74,-3.68 1.46,-6.62 1.46,-10.3 0,-29.41 -25,-46.32 -49.26,-46.32 -20.6,0 -40.44,11.76 -45.6,38.97 -2.21,11.76 -8.09,19.12 -28.67,19.12 h -80.9 c -19.85,0 -29.42,-8.83 -29.42,-29.42 v -185.31 c 0,-20.59 9.57,-29.41 29.42,-29.41 h 80.9 c 20.58,0 26.46,7.35 28.67,19.11 5.16,27.21 25,38.98 45.6,38.98 24.26,0 49.26,-16.92 49.26,-46.33 0,-3.68 -0.72,-6.62 -1.46,-10.29 -11.78,-63.25 -63.24,-97.07 -122.07,-97.07 h -80.9 c -68.38,0 -125,47.06 -125,125.01 z m 2696.31,-2042.38 -922.68,2535 C 5057.62,6233.47 4431,6517.93 3731.02,6263.15 L 1196.01,5340.48 C 496.031,5085.71 198.855,4465.03 457.027,3755.72 L 1379.69,1220.7 c 258.18,-709.29 884.8,-993.751 1584.77,-738.981 l 2535.01,922.671 c 699.98,254.77 997.15,875.45 738.99,1584.77 z M 3677.79,2532.7 c 106.78,32.14 216.37,64.66 321.53,88.02 -14.3,223.54 -24.18,456.25 -26.92,658.58 -83.18,-200.12 -190.49,-472.17 -294.61,-746.6 z m 91.59,1744.35 v 19.12 c 0,21.33 -8.83,29.42 -29.42,29.42 h -110.31 v -77.95 h 110.31 c 20.59,0 29.42,8.09 29.42,29.41 z m -603.39,787.58 c 0,0 -0.73,4.42 -5.88,4.42 -4.41,0 -4.41,-2.21 -5.88,-3.68 l -33.82,-149.28 h 72.07 l -26.49,148.54" /><path
         id="path18"
         style="fill:none;stroke:#231f20;stroke-width:5;stroke-linecap:butt;stroke-linejoin:miter;stroke-miterlimit:4;stroke-dasharray:none;stroke-opacity:1"
         d="M 270,360 H 0" /><path
         id="path20"
         style="fill:none;stroke:#231f20;stroke-width:5;stroke-linecap:butt;stroke-linejoin:miter;stroke-miterlimit:4;stroke-dasharray:none;stroke-opacity:1"
         d="M 360,270 V 0" /><path
         id="path22"
         style="fill:none;stroke:#231f20;stroke-width:5;stroke-linecap:butt;stroke-linejoin:miter;stroke-miterlimit:4;stroke-dasharray:none;stroke-opacity:1"
         d="M 270,6360 H 0" /><path
         id="path24"
         style="fill:none;stroke:#231f20;stroke-width:5;stroke-linecap:butt;stroke-linejoin:miter;stroke-miterlimit:4;stroke-dasharray:none;stroke-opacity:1"
         d="m 360,6450 v 270" /><path
         id="path26"
         style="fill:none;stroke:#231f20;stroke-width:5;stroke-linecap:butt;stroke-linejoin:miter;stroke-miterlimit:4;stroke-dasharray:none;stroke-opacity:1"
         d="m 6450,6360 h 270" /><path
         id="path28"
         style="fill:none;stroke:#231f20;stroke-width:5;stroke-linecap:butt;stroke-linejoin:miter;stroke-miterlimit:4;stroke-dasharray:none;stroke-opacity:1"
         d="m 6360,6450 v 270" /><path
         id="path30"
         style="fill:none;stroke:#231f20;stroke-width:5;stroke-linecap:butt;stroke-linejoin:miter;stroke-miterlimit:4;stroke-dasharray:none;stroke-opacity:1"
         d="m 6450,360 h 270" /><path
         id="path32"
         style="fill:none;stroke:#231f20;stroke-width:5;stroke-linecap:butt;stroke-linejoin:miter;stroke-miterlimit:4;stroke-dasharray:none;stroke-opacity:1"
         d="M 6360,270 V 0" /></g></g></svg>